<?xml version="1.0" encoding="UTF-8" standalone="no"?>
<svg
   version="1.0"
   width="170.000000pt"
   height="296.000000pt"
   viewBox="0 0 170.000000 296.000000"
   preserveAspectRatio="xMidYMid meet"
   id="svg7"
   sodipodi:docname="Untitled(1).svg"
   inkscape:version="1.3.1 (9b9bdc1480, 2023-11-25, custom)"
   xmlns:inkscape="http://www.inkscape.org/namespaces/inkscape"
   xmlns:sodipodi="http://sodipodi.sourceforge.net/DTD/sodipodi-0.dtd"
   xmlns="http://www.w3.org/2000/svg"
   xmlns:svg="http://www.w3.org/2000/svg">
  <defs
     id="defs7" />
  <sodipodi:namedview
     id="namedview7"
     pagecolor="#ffffff"
     bordercolor="#000000"
     borderopacity="0.25"
     inkscape:showpageshadow="2"
     inkscape:pageopacity="0.0"
     inkscape:pagecheckerboard="0"
     inkscape:deskcolor="#d1d1d1"
     inkscape:document-units="pt"
     showgrid="false"
     inkscape:zoom="2.0472973"
     inkscape:cx="113.56436"
     inkscape:cy="136.76568"
     inkscape:window-width="1920"
     inkscape:window-height="1011"
     inkscape:window-x="0"
     inkscape:window-y="32"
     inkscape:window-maximized="1"
     inkscape:current-layer="svg7" />
  <g
     transform="matrix(0.09967282,0,0,-0.09967282,0.57427877,295.83263)"
     fill="#000000"
     stroke="none"
     id="g7"
     style="fill:#d40000">
    <path
       d="M 715,2944 C 621,2925 588,2914 505,2873 177,2710 53,2383 10,1561 -2,1341 -1,1315 26,1175 82,892 244,716 449,719 c 36,0 73,3 83,7 28,9 22,-3 -34,-62 l -51,-54 -62,6 c -51,5 -68,3 -103,-15 -60,-30 -76,-60 -68,-121 4,-28 3,-50 -1,-50 -4,-1 -37,-28 -73,-60 L 75,310 98,290 c 26,-22 38,-18 82,22 75,68 65,66 110,16 21,-25 64,-58 95,-74 30,-16 54,-32 52,-36 -1,-4 -26,-32 -55,-62 -55,-58 -60,-76 -23,-95 17,-9 26,-3 73,51 82,96 85,99 97,84 13,-16 -3,-79 -25,-97 -8,-7 -20,-21 -25,-31 -23,-43 45,-86 82,-52 20,18 25,63 10,80 -15,15 -25,114 -12,114 19,0 49,-60 56,-111 4,-27 11,-49 16,-49 16,0 10,85 -9,121 -18,36 -18,36 4,56 31,28 40,84 20,124 l -16,31 76,90 c 41,49 86,107 101,129 14,21 29,39 34,39 5,0 27,-28 51,-62 23,-35 63,-86 89,-113 26,-28 50,-62 54,-76 9,-34 13,-61 14,-80 1,-8 11,-26 22,-38 14,-15 18,-25 11,-30 -20,-12 -82,-125 -82,-148 0,-39 25,-26 47,25 12,26 28,56 37,67 15,19 15,18 16,-21 0,-22 -7,-56 -17,-74 -14,-30 -15,-36 -2,-59 8,-14 22,-27 31,-29 40,-8 65,69 33,102 -15,15 -22,96 -7,96 4,0 16,-7 26,-15 11,-8 29,-15 41,-15 13,0 39,-21 69,-55 43,-50 49,-54 69,-44 12,7 24,13 26,15 2,2 -11,17 -28,34 -17,17 -31,37 -31,43 0,7 21,23 46,36 47,25 99,81 128,139 9,17 21,32 26,32 5,0 33,-29 62,-64 29,-36 57,-65 61,-65 26,-3 10,107 -34,226 -72,201 -239,350 -430,384 -79,14 -76,6 -53,129 l 16,85 77,81 78,82 18,-30 c 9,-17 33,-36 51,-44 47,-20 45,-44 -3,-41 -33,2 -38,-1 -41,-21 -3,-18 2,-23 25,-28 23,-5 29,-11 28,-32 0,-24 4,-27 35,-27 32,0 35,2 33,27 -1,22 3,27 25,30 19,2 28,10 30,25 4,26 -31,41 -53,23 -12,-10 -15,-8 -15,11 0,17 10,28 33,39 72,34 73,144 2,285 l -35,70 16,60 c 9,33 17,105 18,160 1,96 2,101 29,123 32,28 34,51 8,83 -17,21 -22,22 -40,12 -30,-19 -38,-16 -49,15 -16,46 -99,129 -158,158 -38,19 -76,28 -127,32 -119,8 -216,68 -253,158 -10,25 -14,87 -14,239 v 205 l 23,-5 c 12,-3 44,-10 71,-15 90,-19 220,-92 330,-183 106,-89 103,-88 80,-48 -55,97 -235,247 -327,272 -68,18 -99,31 -146,60 -42,26 -47,26 -73,13 -15,-8 -64,-28 -108,-44 -162,-60 -272,-135 -361,-247 -59,-74 -143,-228 -133,-244 3,-5 1,-9 -5,-9 -5,0 -12,-13 -16,-30 -5,-21 -13,-30 -26,-30 -15,0 -19,5 -15,18 3,9 10,40 16,67 15,67 88,220 137,287 60,81 182,188 261,231 94,50 206,79 310,78 350,0 640,-330 729,-830 14,-78 17,-149 15,-381 -2,-268 -16,-613 -28,-671 -5,-25 -2,-27 47,-33 28,-4 54,-5 56,-2 3,3 0,27 -8,53 -10,37 -14,157 -14,518 -2,481 -5,541 -45,723 -60,272 -182,454 -368,550 -95,50 -143,65 -266,87 -105,18 -176,18 -271,-1 z m 105,-379 c 0,-101 -5,-206 -11,-232 -23,-105 -106,-179 -233,-207 -88,-20 -130,-46 -169,-104 -36,-54 -27,-66 16,-24 39,38 112,68 188,78 90,12 160,71 204,172 l 18,43 26,-48 c 47,-87 122,-127 262,-143 160,-18 270,-129 293,-295 8,-58 -8,-205 -30,-285 -31,-108 -103,-238 -172,-311 -36,-38 -67,-67 -70,-65 -2,3 -7,25 -9,48 -8,72 -57,203 -160,427 -90,196 -120,245 -131,212 -3,-9 -7,-9 -18,-1 -20,18 -28,8 -69,-89 -31,-75 -43,-92 -70,-105 -71,-34 -130,-17 -207,61 -56,55 -60,48 -15,-27 44,-74 88,-103 147,-97 25,2 55,8 67,12 20,7 19,0 -21,-96 -24,-57 -61,-146 -82,-198 l -38,-94 -41,45 c -57,62 -111,176 -140,295 -14,56 -25,112 -26,125 0,13 -4,32 -9,43 -11,23 -3,-128 10,-187 7,-33 5,-38 -22,-58 -37,-27 -78,-113 -78,-163 0,-52 22,-101 59,-128 39,-28 43,-54 6,-37 -19,8 -28,8 -40,-2 -26,-21 -18,-50 15,-57 22,-4 28,-9 20,-18 -17,-20 12,-47 45,-43 24,2 31,8 33,30 2,18 11,28 28,32 17,5 24,13 24,30 0,27 -18,37 -49,29 -15,-4 -21,-1 -21,11 0,9 5,16 12,16 18,0 58,41 58,60 0,33 13,28 55,-22 40,-48 44,-58 50,-128 3,-41 13,-104 21,-140 9,-36 18,-84 21,-106 l 5,-42 -42,-7 c -71,-12 -153,-9 -192,8 -52,22 -124,91 -162,156 -30,51 -42,82 -77,196 -8,27 -14,142 -16,346 -5,315 3,401 41,492 13,31 13,31 21,-48 10,-112 40,-245 72,-315 28,-64 34,-68 53,-45 10,12 5,31 -23,102 -44,110 -62,243 -53,392 12,214 75,366 209,504 116,120 241,182 375,186 l 42,1 z m 90,-872 c 0,-4 8,-25 18,-47 25,-55 56,-127 87,-206 14,-36 29,-71 32,-77 3,-7 1,-13 -4,-13 -4,0 -39,62 -77,138 -71,142 -93,175 -107,166 -5,-3 -9,27 -9,67 v 73 l 30,-47 c 17,-26 30,-51 30,-54 z m -89,-20 c -2,-13 -9,-23 -16,-23 -11,0 -50,-81 -57,-120 -2,-8 -6,-17 -10,-20 -9,-7 -48,-154 -48,-180 0,-39 18,-19 34,38 9,32 16,65 16,74 0,13 11,45 51,147 26,65 31,-5 32,-441 0,-443 0,-443 -23,-488 -30,-59 -78,-118 -173,-214 -70,-71 -81,-78 -107,-72 -43,8 -107,52 -124,84 l -15,29 124,129 c 77,80 123,135 120,144 -11,35 -56,280 -62,331 -5,56 11,138 42,204 16,36 40,93 85,200 18,44 41,98 51,121 11,23 19,44 19,46 0,3 12,32 27,64 l 27,59 6,-45 c 3,-25 3,-55 1,-67 z m 118,-185 c 126,-229 145,-275 149,-348 2,-37 -1,-90 -6,-117 -22,-98 -26,-227 -9,-264 8,-19 17,-42 20,-51 3,-9 19,-25 34,-34 101,-62 202,-131 207,-142 17,-39 -50,-123 -127,-161 l -40,-20 -36,29 c -85,67 -191,189 -233,266 l -43,79 -3,395 c -2,233 1,391 6,385 15,-17 44,-97 56,-154 15,-74 41,-84 33,-12 -3,28 -13,64 -21,79 -15,28 -66,162 -66,175 0,27 26,-8 79,-105 z m 511,-131 c 17,-80 13,-145 -9,-157 -34,-18 -66,-11 -96,20 l -29,31 31,62 c 17,34 37,79 44,100 l 13,38 18,-23 c 9,-13 22,-45 28,-71 z m -1071,3 c 17,-41 31,-82 31,-91 0,-30 -40,-69 -71,-69 -58,0 -89,101 -53,173 13,26 55,70 60,64 1,-1 16,-36 33,-77 z m -81,-252 c -7,-19 -38,-22 -38,-4 0,10 9,16 21,16 12,0 19,-5 17,-12 z m 95,-3 c 1,-5 -6,-11 -15,-13 -11,-2 -18,3 -18,13 0,17 30,18 33,0 z m 969,-27 c -9,-9 -15,-9 -24,0 -10,10 -10,15 2,22 20,12 38,-6 22,-22 z m 106,15 c -4,-22 -22,-20 -26,1 -2,10 3,16 13,16 10,0 15,-7 13,-17 z M 346,1059 c 10,-17 -13,-36 -27,-22 -12,12 -4,33 11,33 5,0 12,-5 16,-11 z m 1067,-24 c 7,-18 -6,-27 -27,-19 -13,5 -14,9 -5,20 15,18 25,18 32,-1 z M 1275,780 c 131,-63 273,-253 319,-430 11,-39 -81,67 -95,110 -27,84 -89,138 -143,124 -17,-4 -48,14 -127,73 -136,101 -146,115 -113,147 21,22 82,12 159,-24 z M 343,556 c -11,-68 59,-171 144,-211 27,-13 50,-16 90,-11 48,6 53,4 53,-13 0,-11 -12,-34 -27,-51 -25,-31 -30,-32 -79,-27 -100,10 -210,92 -255,190 -34,76 -23,121 35,151 38,19 46,13 39,-28 z m 1057,-51 c 0,-52 -21,-109 -53,-144 -22,-23 -22,-24 -1,-13 33,18 81,78 89,111 7,34 19,40 29,15 29,-74 -39,-200 -129,-243 -27,-13 -65,-21 -96,-21 -46,0 -55,4 -90,39 -43,43 -49,61 -19,61 30,0 115,35 147,60 40,31 92,108 99,147 9,48 24,41 24,-12 z"
       id="path1"
       style="fill:#d40000" />
    <path
       d="m 807,2042 c -23,-25 -21,-49 4,-63 28,-15 69,3 69,30 0,17 -33,51 -51,51 -3,0 -13,-8 -22,-18 z"
       id="path2"
       style="fill:#d40000" />
    <path
       d="m 1234,1848 c -54,-26 -109,-44 -163,-52 -45,-7 -84,-16 -87,-19 -3,-3 -3,-15 1,-26 6,-19 11,-21 58,-15 67,9 152,40 202,75 38,26 80,68 73,74 -2,1 -40,-15 -84,-37 z"
       id="path3"
       style="fill:#d40000" />
    <path
       d="m 428,1847 c 44,-47 244,-127 265,-107 5,4 7,16 5,26 -3,19 -8,21 -138,49 -41,9 -90,25 -108,36 -44,25 -50,24 -24,-4 z"
       id="path4"
       style="fill:#d40000" />
    <path
       d="m 1274,1712 c -17,-26 -52,-60 -78,-76 -45,-29 -49,-29 -109,-19 -34,6 -64,9 -66,7 -5,-5 61,-44 87,-50 79,-21 173,54 207,164 11,36 -8,24 -41,-26 z"
       id="path5"
       style="fill:#d40000" />
    <path
       d="m 307,494 c -26,-26 22,-131 70,-153 30,-14 63,-14 63,-1 0,6 -6,10 -13,10 -17,0 -87,67 -87,83 -1,23 -25,69 -33,61 z"
       id="path6"
       style="fill:#d40000" />
    <path
       d="m 543,303 c -35,-5 -44,-20 -17,-30 9,-3 25,3 37,16 12,11 19,20 17,19 -3,0 -20,-3 -37,-5 z"
       id="path7"
       style="fill:#d40000" />
  </g>
</svg>
